PathFileType	4	(X/Y/Z)	c:/Users/goper/Files/vsCode/490R/osim_files/A01/A01_PWS_04.trc
DataRate	CameraRate	NumFrames	NumMarkers	Units                	OrigDataRate	OrigDataStartFrame	OrigNumFrames
120.00	120.00	4	36	mm	120.0	741	1184
                Frame#	Time	Mobility_markerset:LPSIS			Mobility_markerset:LASIS			Mobility_markerset:LTH1			Mobility_markerset:LTH2			Mobility_markerset:LTH3			Mobility_markerset:LTH4			Mobility_markerset:LLFE			Mobility_markerset:LMFE			Mobility_markerset:LSH1			Mobility_markerset:LSH2			Mobility_markerset:LSH3			Mobility_markerset:LSH4			Mobility_markerset:LLMAL			Mobility_markerset:LMMAL			Mobility_markerset:LCAL			Mobility_markerset:LMTP5			Mobility_markerset:LTOE			Mobility_markerset:LMTP1			Mobility_markerset:RPSIS			Mobility_markerset:RASIS			Mobility_markerset:RTH1			Mobility_markerset:RTH2			Mobility_markerset:RTH3			Mobility_markerset:RTH4			Mobility_markerset:RLFE			Mobility_markerset:RMFE			Mobility_markerset:RSH1			Mobility_markerset:RSH2			Mobility_markerset:RSH3			Mobility_markerset:RSH4			Mobility_markerset:RLMAL			Mobility_markerset:RMMAL			Mobility_markerset:RCAL			Mobility_markerset:RMTP1			Mobility_markerset:RTOE			Mobility_markerset:RMTP5		
		X1	Y1	Z1	X2	Y2	Z2	X3	Y3	Z3	X4	Y4	Z4	X5	Y5	Z5	X6	Y6	Z6	X7	Y7	Z7	X8	Y8	Z8	X9	Y9	Z9	X10	Y10	Z10	X11	Y11	Z11	X12	Y12	Z12	X13	Y13	Z13	X14	Y14	Z14	X15	Y15	Z15	X16	Y16	Z16	X17	Y17	Z17	X18	Y18	Z18	X19	Y19	Z19	X20	Y20	Z20	X21	Y21	Z21	X22	Y22	Z22	X23	Y23	Z23	X24	Y24	Z24	X25	Y25	Z25	X26	Y26	Z26	X27	Y27	Z27	X28	Y28	Z28	X29	Y29	Z29	X30	Y30	Z30	X31	Y31	Z31	X32	Y32	Z32	X33	Y33	Z33	X34	Y34	Z34	X35	Y35	Z35	X36	Y36	Z36

741	6.16667	0.00000	0.00000	0.00000	-2332.93237	1013.48596	406.30814	-2228.60278	690.35889	453.07895	-2221.83569	645.62384	440.87076	-2168.74438	694.96771	450.80157	-2170.08472	647.88306	442.30887	-2185.93677	527.20837	409.06058	-2199.41089	532.01337	270.81595	-2098.16602	383.99759	396.56088	-2083.24268	338.65280	399.05206	-2155.17139	359.36475	392.37836	-2132.13599	319.69269	393.62247	-2017.42163	100.06184	377.34604	-2003.00098	101.78054	290.83322	-1932.33252	82.71819	339.20554	-2150.48950	36.59040	385.31494	-2172.64307	57.13039	315.78055	-2154.49951	47.71905	282.65213	-2111.20044	1042.37378	191.25714	-2345.42236	989.92645	147.78123	-2306.67529	662.36499	63.54147	-2326.85156	624.13153	67.93835	-2363.58398	685.48578	67.09480	-2374.95752	644.47424	69.32597	-2427.07617	518.04712	114.19281	-2411.59937	526.17676	244.35913	0.00000	0.00000	0.00000	-2430.52808	264.94214	103.55911	-2468.83789	326.48730	99.55237	-2480.52710	282.55457	99.96761	-2521.53979	105.17213	131.21565	-2541.05103	134.90323	212.78943	-2487.96631	60.40646	186.01999	-2686.44922	128.22456	201.80121	-2705.43628	156.97490	153.96130	-2664.41479	102.22651	94.13668
742	6.17500	0.00000	0.00000	0.00000	-2342.88477	1011.65912	406.35370	-2235.31519	688.99878	452.29111	-2228.19189	644.23303	440.28748	-2175.47070	694.23560	449.90424	-2176.41138	647.01868	441.52655	-2191.36719	526.06360	408.50790	-2205.02173	530.56549	270.29724	-2101.98389	383.78607	396.19684	-2086.66162	338.66278	398.70688	-2159.87744	358.33456	393.99561	-2135.15967	319.07556	393.29645	-2017.98206	100.70520	377.34134	-2003.61633	102.47765	290.59283	-1932.85852	83.94141	339.07382	-2150.57080	36.50059	385.34848	-2172.72998	57.04848	315.75000	-2154.63135	47.72234	282.73465	-2122.42041	1041.28345	188.86005	-2356.64526	987.67346	147.89145	-2318.30664	661.55841	61.56379	-2338.42432	623.46088	66.09091	-2375.10400	684.93054	65.73846	-2386.87158	643.60663	68.15955	-2437.31787	516.79926	113.64754	-2420.93921	526.58289	243.24329	0.00000	0.00000	0.00000	-2445.80420	264.06415	102.05898	-2482.84961	326.52786	98.34729	-2495.39185	282.46994	98.56676	-2541.89551	106.70695	129.24966	-2560.08618	136.29370	211.36409	-2509.43555	60.27774	183.91261	-2705.41455	134.27586	201.80931	-2724.01562	164.12593	154.11876	-2685.40967	108.55674	93.41218
743	6.18333	0.00000	0.00000	0.00000	-2352.57471	1009.78925	406.02414	-2242.33838	687.53040	451.50510	-2234.71362	642.86060	439.51654	-2182.58521	693.30426	448.96548	-2183.02588	646.23541	440.69177	-2197.13770	524.72693	407.96381	-2210.91943	528.98505	269.73550	-2106.09204	383.58569	395.79132	-2090.16479	338.66821	398.32538	-2162.47803	357.59204	391.68286	-2138.49243	318.42490	393.02789	-2018.66162	101.30981	377.47751	-2004.26599	103.11555	290.47415	-1933.43225	85.32137	339.06503	-2150.62744	36.29895	385.41495	-2172.80493	56.89622	315.76901	-2154.78271	47.68589	282.88428	-2133.64160	1040.20020	186.48874	-2368.17236	985.58655	148.09483	-2331.16626	660.61804	59.64049	-2351.65308	622.63611	64.88424	-2387.75757	684.49738	65.17572	-2399.96484	643.46033	68.30352	-2447.72681	515.58008	112.40602	-2429.61182	525.56885	242.62219	-2439.16113	303.07269	101.41550	-2460.22046	263.05862	100.96661	-2495.88745	326.09521	97.21972	-2509.18750	282.05948	97.45369	-2559.30078	107.27879	128.11923	-2576.62817	137.07188	210.31992	-2527.78760	59.73358	182.82703	-2721.57983	139.33220	201.53064	-2739.66260	169.38469	153.94412	-2703.35010	112.72604	92.68202
744	6.19167	0.00000	0.00000	0.00000	-2362.45068	1007.85010	405.65732	-2249.71045	685.92456	450.73340	-2241.57935	641.37787	438.73410	-2190.07886	692.25549	448.01166	-2190.11450	645.18256	439.87585	-2203.18018	523.36176	407.35367	-2216.89526	527.33691	269.07156	-2110.37817	383.28687	395.35294	-2093.92822	338.69476	397.92438	-2166.56421	356.64783	391.43298	-2142.05664	317.76642	392.68231	-2019.47339	102.01891	377.56149	-2005.06702	103.95270	290.27060	-1934.12024	86.75874	339.01248	-2150.73438	36.12420	385.49448	-2172.95459	56.77184	315.77942	-2154.96704	47.62297	283.09766	-2145.25024	1038.90173	184.33975	-2379.05811	983.28961	148.18559	-2344.51099	659.73224	58.06005	-2365.50366	622.14404	64.12524	-2400.89941	684.39270	65.06470	-2413.69312	643.38239	68.70753	-2458.69238	514.94965	110.88026	-2438.13452	523.53125	242.59972	-2452.72046	301.86221	101.08880	-2473.17139	262.19891	100.16173	-2508.84790	325.51254	95.97491	-2522.09326	281.39456	96.39069	-2573.24097	106.66081	127.39761	-2589.96753	137.04735	209.52245	-2542.50195	58.72641	182.24722	-2735.00366	141.50226	201.14581	-2752.86841	171.36816	153.52530	-2717.88306	113.78143	92.07489
